<?xml version="1.0" standalone="no"?>
<!DOCTYPE svg PUBLIC "-//W3C//DTD SVG 20010904//EN"
 "http://www.w3.org/TR/2001/REC-SVG-20010904/DTD/svg10.dtd">
<svg version="1.0" xmlns="http://www.w3.org/2000/svg"
 width="700.000000pt" height="700.000000pt" viewBox="0 0 700.000000 700.000000"
 preserveAspectRatio="xMidYMid meet">
<metadata>
Created by potrace 1.11, written by Peter Selinger 2001-2013
</metadata>
<g transform="translate(0.000000,700.000000) scale(0.100000,-0.100000)"
fill="#000000" stroke="none">
<path d="M1688 5684 c-2 -1 -43 -5 -93 -8 -79 -5 -178 -16 -283 -31 -44 -7
-166 -32 -269 -56 -219 -50 -523 -179 -678 -287 l-70 -48 -2 -2151 c-2 -1480
0 -2160 8 -2180 19 -55 52 -77 125 -81 36 -3 75 0 87 6 90 43 285 118 417 160
100 32 352 92 450 107 19 3 42 8 50 10 8 3 42 7 74 10 33 4 63 8 66 10 28 17
418 24 610 11 86 -6 342 -38 400 -50 8 -1 33 -6 55 -11 278 -53 606 -185 799
-319 l66 -47 58 34 c310 181 886 353 1322 393 207 19 512 7 785 -32 251 -35
561 -131 778 -241 110 -55 182 -46 234 30 l28 40 3 2148 2 2147 -47 35 c-118
85 -318 183 -500 246 -85 29 -296 84 -358 94 -16 3 -59 10 -95 16 -36 5 -87
13 -115 16 -27 4 -61 8 -73 10 -70 12 -251 19 -437 19 -225 -1 -324 -7 -485
-29 -19 -3 -53 -7 -75 -10 -22 -2 -51 -7 -65 -10 -14 -3 -34 -7 -45 -9 -329
-66 -618 -177 -833 -318 l-84 -55 -81 55 c-215 145 -597 286 -882 327 -23 3
-50 7 -60 9 -36 7 -167 23 -260 32 -60 6 -522 13 -527 8z m3670 -588 c67 -4
132 -9 145 -11 12 -2 43 -6 69 -9 26 -3 78 -11 115 -17 37 -6 77 -12 88 -13
11 -2 29 -6 40 -9 11 -3 36 -9 55 -12 42 -7 207 -50 235 -62 20 -8 20 -12 20
-1680 0 -1253 -3 -1673 -11 -1673 -7 0 -40 9 -75 19 -75 23 -274 67 -339 75
-25 4 -56 8 -70 10 -249 40 -693 43 -920 5 -463 -78 -862 -207 -1163 -378 -21
-11 -40 -21 -42 -21 -3 0 -4 755 -3 1677 l3 1678 140 70 c77 39 167 81 200 94
33 12 78 30 100 39 21 9 42 17 45 18 3 0 50 14 105 31 107 34 200 61 231 68
11 2 48 10 84 19 90 21 265 54 325 61 28 3 59 8 70 10 11 2 65 7 120 11 55 3
101 7 102 8 4 4 215 -2 331 -8z"/>
</g>
</svg>
